# Blender v3.0.0 OBJ File: ''
# www.blender.org
mtllib testLevelGeometry.mtl
o Plane
v -6.000000 0.000000 10.000000
v 6.000000 0.000000 10.000000
v -6.000000 0.000000 -10.000000
v 6.000000 0.000000 -10.000000
v -6.000000 0.000000 -10.000000
v -6.000000 0.000000 10.000000
v 6.000000 0.000000 10.000000
v 6.000000 0.000000 -10.000000
v -6.000000 0.000000 -20.000000
v 6.000000 0.000000 -20.000000
v -8.400000 0.000000 -22.000000
v 8.400000 0.000000 -22.000000
v -10.080000 0.000000 -25.000000
v 10.080000 0.000000 -25.000000
v -10.684802 0.000000 -28.000000
v 10.684802 0.000000 -28.000000
v -10.684802 0.000000 -41.000000
v 10.684802 0.000000 -41.000000
v -10.684802 3.000000 -50.000000
v 10.684802 3.000000 -50.000000
v -10.684802 3.000000 -59.000000
v 10.684802 3.000000 -59.000000
v -6.000000 10.000000 -10.000000
v -6.000000 10.000000 10.000000
v 6.000000 10.000000 10.000000
v 6.000000 10.000000 -10.000000
v -6.000000 10.000000 -20.000000
v 6.000000 10.000000 -20.000000
v -8.400000 10.000000 -22.000000
v 8.400000 10.000000 -22.000000
v -10.080000 10.000000 -25.000000
v 10.080000 10.000000 -25.000000
v -10.684802 10.000000 -28.000000
v 10.684802 10.000000 -28.000000
v -10.684802 10.000000 -41.000000
v 10.684802 10.000000 -41.000000
v -10.684802 13.000000 -50.000000
v 10.684802 13.000000 -50.000000
v -10.684802 13.000000 -59.000000
v 10.684802 13.000000 -59.000000
vt 0.000000 0.000000
vt 1.000000 0.000000
vt 1.000000 1.000000
vt 0.000000 1.000000
vt 0.000000 0.000000
vt 0.000000 1.000000
vt 1.000000 1.000000
vt 1.000000 0.000000
vt 1.000000 1.000000
vt 0.000000 1.000000
vt 1.000000 1.000000
vt 0.000000 1.000000
vt 1.000000 1.000000
vt 0.000000 1.000000
vt 1.000000 1.000000
vt 0.000000 1.000000
vt 1.000000 1.000000
vt 0.000000 1.000000
vt 1.000000 1.000000
vt 0.000000 1.000000
vt 1.000000 1.000000
vt 0.000000 1.000000
vt 0.000000 1.000000
vt 0.000000 1.000000
vt 1.000000 1.000000
vt 1.000000 1.000000
vt 1.000000 1.000000
vt 0.000000 1.000000
vt 0.000000 1.000000
vt 0.000000 1.000000
vt 1.000000 1.000000
vt 1.000000 1.000000
vt 1.000000 1.000000
vt 0.000000 1.000000
vt 0.000000 1.000000
vt 1.000000 1.000000
vt 0.000000 1.000000
vt 0.000000 0.000000
vt 1.000000 0.000000
vt 1.000000 1.000000
vn 0.0000 1.0000 0.0000
vn 0.0000 -1.0000 0.0000
vn 0.0000 0.0000 1.0000
vn 0.0000 0.9487 0.3162
vn 1.0000 0.0000 0.0000
vn -0.9803 0.0000 -0.1976
vn 0.9803 0.0000 -0.1976
vn -0.6402 0.0000 -0.7682
vn -1.0000 0.0000 0.0000
vn 0.6402 0.0000 -0.7682
vn -0.8725 0.0000 -0.4886
vn 0.0000 0.0000 -1.0000
vn 0.8725 0.0000 -0.4886
usemtl None
s off
f 1/1/1 2/2/1 4/3/1 3/4/1
f 6/5/2 5/6/2 8/7/2 7/8/2
f 2/2/3 7/8/3 8/7/3 4/3/3
f 3/4/3 5/6/3 6/5/3 1/1/3
f 4/3/3 8/7/3 5/6/3 3/4/3
f 1/1/3 6/5/3 7/8/3 2/2/3
f 8/7/1 10/9/1 9/10/1 5/6/1
f 10/9/1 12/11/1 11/12/1 9/10/1
f 12/11/1 14/13/1 13/14/1 11/12/1
f 14/13/1 16/15/1 15/16/1 13/14/1
f 16/15/1 18/17/1 17/18/1 15/16/1
f 18/17/4 20/19/4 19/20/4 17/18/4
f 20/19/1 22/21/1 21/22/1 19/20/1
f 19/20/5 37/23/5 35/24/5 17/18/5
f 14/13/6 32/25/6 34/26/6 16/15/6
f 22/21/3 40/27/3 39/28/3 21/22/3
f 15/16/7 33/29/7 31/30/7 13/14/7
f 10/9/8 28/31/8 30/32/8 12/11/8
f 20/19/9 38/33/9 40/27/9 22/21/9
f 11/12/10 29/34/10 27/35/10 9/10/10
f 21/22/5 39/28/5 37/23/5 19/20/5
f 16/15/9 34/26/9 36/36/9 18/17/9
f 17/18/5 35/24/5 33/29/5 15/16/5
f 5/6/5 23/37/5 24/38/5 6/5/5
f 12/11/11 30/32/11 32/25/11 14/13/11
f 6/5/12 24/38/12 25/39/12 7/8/12
f 13/14/13 31/30/13 29/34/13 11/12/13
f 8/7/9 26/40/9 28/31/9 10/9/9
f 18/17/9 36/36/9 38/33/9 20/19/9
f 7/8/9 25/39/9 26/40/9 8/7/9
f 9/10/5 27/35/5 23/37/5 5/6/5
